<svg xmlns="http://www.w3.org/2000/svg" width="900" height="520" viewBox="0 0 900 520" font-family="-apple-system, Helvetica Neue, sans-serif">
<rect width="100%" height="100%" fill="#fbfbfa"/>
<text x="450.0" y="24" text-anchor="middle" font-size="14" fill="#444" font-weight="600">XFXFXF causal-color chain · 11 nodes · Σtrit = 0 (mod 3) ✓</text>
<line x1="86.9" y1="167.1" x2="161.7" y2="242.9" stroke="#555" stroke-width="1.5" fill="none"/><polygon points="161.7,242.9 153.2,240.0 158.9,234.4" fill="#555" opacity="0.7"/>
<line x1="86.9" y1="352.9" x2="161.7" y2="277.1" stroke="#555" stroke-width="1.5" fill="none"/><polygon points="161.7,277.1 158.9,285.6 153.2,280.0" fill="#555" opacity="0.7"/>
<line x1="192.9" y1="240.7" x2="272.9" y2="132.6" stroke="#555" stroke-width="1.5" fill="none"/><polygon points="272.9,132.6 271.3,141.4 264.9,136.7" fill="#555" opacity="0.7"/>
<line x1="287.1" y1="137.3" x2="287.1" y2="236.0" stroke="#555" stroke-width="1.5" fill="none"/><polygon points="287.1,236.0 283.1,228.0 291.1,228.0" fill="#555" opacity="0.7"/>
<line x1="301.4" y1="132.6" x2="381.4" y2="240.7" stroke="#555" stroke-width="1.5" fill="none"/><polygon points="381.4,240.7 373.5,236.7 379.9,231.9" fill="#555" opacity="0.7"/>
<line x1="311.1" y1="260.0" x2="371.7" y2="260.0" stroke="#555" stroke-width="1.5" fill="none"/><polygon points="371.7,260.0 363.7,264.0 363.7,256.0" fill="#555" opacity="0.7"/>
<line x1="301.4" y1="387.4" x2="381.4" y2="279.3" stroke="#555" stroke-width="1.5" fill="none"/><polygon points="381.4,279.3 379.9,288.1 373.5,283.3" fill="#555" opacity="0.7"/>
<line x1="419.7" y1="260.0" x2="588.9" y2="260.0" stroke="#555" stroke-width="1.5" fill="none"/><polygon points="588.9,260.0 580.9,264.0 580.9,256.0" fill="#555" opacity="0.7"/>
<line x1="528.3" y1="260.0" x2="588.9" y2="260.0" stroke="#555" stroke-width="1.5" fill="none"/><polygon points="588.9,260.0 580.9,264.0 580.9,256.0" fill="#555" opacity="0.7"/>
<line x1="636.9" y1="260.0" x2="697.4" y2="260.0" stroke="#555" stroke-width="1.5" fill="none"/><polygon points="697.4,260.0 689.4,264.0 689.4,256.0" fill="#555" opacity="0.7"/>
<line x1="806.0" y1="260.0" x2="419.7" y2="260.0" stroke="#555" stroke-width="1.5" fill="none" stroke-dasharray="6,4"/><polygon points="419.7,260.0 427.7,256.0 427.7,264.0" fill="#555" opacity="0.7"/>
<line x1="806.0" y1="260.0" x2="745.4" y2="260.0" stroke="#555" stroke-width="1.5" fill="none" stroke-dasharray="6,4"/><polygon points="745.4,260.0 753.4,256.0 753.4,264.0" fill="#555" opacity="0.7"/>
<circle cx="70.0" cy="150.0" r="22" fill="#7C2B7C" stroke="#333" stroke-width="1.6"  opacity="0.9"/>
<text x="70.0" y="155.0" text-anchor="middle" font-size="11" fill="#111" font-weight="600">U1</text>
<text x="70.0" y="192.0" text-anchor="middle" font-size="9.5" fill="#444">#7C2B7C +</text>
<text x="70.0" y="205.0" text-anchor="middle" font-size="9" fill="#777">text_input</text>
<circle cx="70.0" cy="370.0" r="22" fill="#FAF573" stroke="#333" stroke-width="1.6"  opacity="0.9"/>
<text x="70.0" y="375.0" text-anchor="middle" font-size="11" fill="#111" font-weight="600">U2</text>
<text x="70.0" y="412.0" text-anchor="middle" font-size="9.5" fill="#444">#FAF573 +</text>
<text x="70.0" y="425.0" text-anchor="middle" font-size="9" fill="#777">codec_parameters</text>
<circle cx="178.6" cy="260.0" r="22" fill="#AC152D" stroke="#333" stroke-width="1.6"  opacity="0.9"/>
<text x="178.6" y="265.0" text-anchor="middle" font-size="11" fill="#111" font-weight="600">Fiona</text>
<text x="178.6" y="302.0" text-anchor="middle" font-size="9.5" fill="#444">#AC152D +</text>
<text x="178.6" y="315.0" text-anchor="middle" font-size="9" fill="#777">apple_tts_fn</text>
<circle cx="287.1" cy="113.3" r="22" fill="#B4AAE7" stroke="#333" stroke-width="1.6" stroke-dasharray="2,3" opacity="0.9"/>
<text x="287.1" y="118.3" text-anchor="middle" font-size="11" fill="#111" font-weight="600">W1</text>
<text x="287.1" y="155.3" text-anchor="middle" font-size="9.5" fill="#444">#B4AAE7 −</text>
<text x="287.1" y="168.3" text-anchor="middle" font-size="9" fill="#777">fiona-phonemes.wav</text>
<circle cx="287.1" cy="260.0" r="22" fill="#8DDC6D" stroke="#333" stroke-width="1.6" stroke-dasharray="6,3" opacity="0.9"/>
<text x="287.1" y="265.0" text-anchor="middle" font-size="11" fill="#111" font-weight="600">W2</text>
<text x="287.1" y="302.0" text-anchor="middle" font-size="9.5" fill="#444">#8DDC6D ○</text>
<text x="287.1" y="315.0" text-anchor="middle" font-size="9" fill="#777">fiona-phonemes.m4a</text>
<circle cx="287.1" cy="406.7" r="22" fill="#3DA564" stroke="#333" stroke-width="1.6" stroke-dasharray="6,3" opacity="0.9"/>
<text x="287.1" y="411.7" text-anchor="middle" font-size="11" fill="#111" font-weight="600">H</text>
<text x="287.1" y="448.7" text-anchor="middle" font-size="9.5" fill="#444">#3DA564 ○</text>
<text x="287.1" y="461.7" text-anchor="middle" font-size="9" fill="#777">bag-haikus.m4a</text>
<circle cx="395.7" cy="260.0" r="22" fill="#E29A1C" stroke="#333" stroke-width="1.6"  opacity="0.9"/>
<text x="395.7" y="265.0" text-anchor="middle" font-size="11" fill="#111" font-weight="600">E</text>
<text x="395.7" y="302.0" text-anchor="middle" font-size="9.5" fill="#444">#E29A1C +</text>
<text x="395.7" y="315.0" text-anchor="middle" font-size="9" fill="#777">elevenlabs_embedding</text>
<circle cx="504.3" cy="260.0" r="22" fill="#352A8A" stroke="#333" stroke-width="1.6" stroke-dasharray="2,3" opacity="0.9"/>
<text x="504.3" y="265.0" text-anchor="middle" font-size="11" fill="#111" font-weight="600">Q</text>
<text x="504.3" y="302.0" text-anchor="middle" font-size="9.5" fill="#444">#352A8A −</text>
<text x="504.3" y="315.0" text-anchor="middle" font-size="9" fill="#777">query_text</text>
<circle cx="612.9" cy="260.0" r="22" fill="#AAEB5D" stroke="#333" stroke-width="1.6" stroke-dasharray="6,3" opacity="0.9"/>
<text x="612.9" y="265.0" text-anchor="middle" font-size="11" fill="#111" font-weight="600">XFXFXF</text>
<text x="612.9" y="302.0" text-anchor="middle" font-size="9.5" fill="#444">#AAEB5D ○</text>
<text x="612.9" y="315.0" text-anchor="middle" font-size="9" fill="#777">xfxfxf_synth</text>
<circle cx="721.4" cy="260.0" r="22" fill="#3622B5" stroke="#333" stroke-width="1.6" stroke-dasharray="2,3" opacity="0.9"/>
<text x="721.4" y="265.0" text-anchor="middle" font-size="11" fill="#111" font-weight="600">L</text>
<text x="721.4" y="302.0" text-anchor="middle" font-size="9.5" fill="#444">#3622B5 −</text>
<text x="721.4" y="315.0" text-anchor="middle" font-size="9" fill="#777">listener</text>
<circle cx="830.0" cy="260.0" r="22" fill="#7EC7CB" stroke="#333" stroke-width="1.6" stroke-dasharray="2,3" opacity="0.9"/>
<text x="830.0" y="265.0" text-anchor="middle" font-size="11" fill="#111" font-weight="600">Constraint</text>
<text x="830.0" y="302.0" text-anchor="middle" font-size="9.5" fill="#444">#7EC7CB −</text>
<text x="830.0" y="315.0" text-anchor="middle" font-size="9" fill="#777">entitlement_gate</text>
<g font-size="10" fill="#555">
<text x="70" y="490">trit border:  solid=+1  dashed=0  dotted=−1       Constraint edges dashed (cross-cutting frame)</text>
</g>
</svg>